<?xml version="1.0" standalone="no"?>
<!DOCTYPE svg PUBLIC "-//W3C//DTD SVG 20010904//EN"
 "http://www.w3.org/TR/2001/REC-SVG-20010904/DTD/svg10.dtd">
<svg version="1.0" xmlns="http://www.w3.org/2000/svg"
 width="500.000000pt" height="500.000000pt" viewBox="0 0 500.000000 500.000000"
 preserveAspectRatio="xMidYMid meet">

<g transform="translate(0.000000,500.000000) scale(0.100000,-0.100000)"
fill="#000000" stroke="none">
<path d="M0 2500 l0 -2500 2500 0 2500 0 0 2500 0 2500 -2500 0 -2500 0 0
-2500z m1500 439 l0 -141 -35 27 -36 26 -57 -52 c-183 -168 -429 -286 -616
-295 l-91 -5 85 29 c115 39 239 102 333 170 77 55 227 202 227 222 0 5 -18 22
-40 36 -22 15 -38 29 -36 31 5 6 247 92 259 92 4 1 7 -63 7 -140z m1456 -144
c15 -23 15 -27 0 -50 -19 -29 -51 -32 -78 -8 -22 20 -23 41 -1 65 23 26 59 23
79 -7z m-1114 -121 l66 -127 63 124 64 124 63 3 62 3 0 -236 0 -235 -45 0 -45
0 -2 168 -3 167 -78 -147 c-43 -82 -80 -148 -82 -148 -2 0 -36 62 -75 138 -39
75 -76 141 -81 147 -5 5 -9 -57 -9 -158 l0 -167 -45 0 -45 0 0 228 c0 126 3
232 7 235 3 4 32 7 63 7 l56 0 66 -126z m898 56 l0 -50 50 0 50 0 0 -40 0 -40
-51 0 -51 0 4 -90 c3 -101 11 -114 66 -106 31 5 32 4 32 -34 0 -36 -1 -38 -37
-42 -52 -6 -102 6 -127 31 -18 18 -21 36 -24 131 l-4 110 -34 0 c-33 0 -34 1
-34 40 0 39 1 40 35 40 34 0 35 1 35 40 0 43 17 58 68 59 20 1 22 -4 22 -49z
m-1240 -310 l0 -260 -75 0 -75 0 0 260 0 260 75 0 75 0 0 -260z m963 246 c132
-56 143 -240 19 -313 -182 -107 -376 119 -234 271 15 16 41 34 57 42 39 17
117 18 158 0z m497 -161 l0 -175 -45 0 -45 0 0 175 0 175 45 0 45 0 0 -175z
m310 155 c69 -35 108 -118 90 -194 -30 -133 -195 -188 -300 -100 -95 81 -80
236 28 294 50 26 131 26 182 0z m220 6 c0 -13 4 -13 28 0 35 18 105 18 141 0
56 -29 65 -58 69 -203 l4 -133 -46 0 -46 0 0 99 c0 99 -10 149 -33 163 -21 14
-80 8 -99 -9 -15 -14 -18 -32 -18 -135 l0 -118 -45 0 -45 0 0 175 0 175 45 0
c33 0 45 -4 45 -14z m-2220 -321 l0 -185 -85 0 -85 0 0 185 0 185 85 0 85 0 0
-185z m-250 -45 l0 -140 -80 0 -80 0 0 140 0 140 80 0 80 0 0 -140z m-250 -15
l0 -125 -75 0 -75 0 0 125 0 125 75 0 75 0 0 -125z"/>
<path d="M2316 2569 c-69 -82 13 -199 108 -154 60 29 74 102 30 154 -21 26
-33 31 -69 31 -36 0 -48 -5 -69 -31z"/>
<path d="M3121 2583 c-44 -36 -44 -119 0 -159 25 -23 89 -25 114 -4 49 40 50
131 2 165 -29 20 -90 19 -116 -2z"/>
</g>
</svg>
