<?xml version="1.0" standalone="no"?>
<!DOCTYPE svg PUBLIC "-//W3C//DTD SVG 20010904//EN"
 "http://www.w3.org/TR/2001/REC-SVG-20010904/DTD/svg10.dtd">
<svg version="1.0" xmlns="http://www.w3.org/2000/svg"
 width="500.000000pt" height="500.000000pt" viewBox="0 0 500.000000 500.000000"
 preserveAspectRatio="xMidYMid meet">

<g transform="translate(0.000000,500.000000) scale(0.100000,-0.100000)"
fill="#000000" stroke="none">
<path d="M0 2500 l0 -2500 2500 0 2500 0 0 2500 0 2500 -2500 0 -2500 0 0
-2500z m1510 440 c0 -79 -4 -140 -9 -140 -5 0 -23 12 -40 26 l-31 26 -61 -56
c-130 -121 -308 -223 -470 -269 -75 -22 -259 -46 -259 -34 0 3 39 17 88 32
194 60 386 177 513 313 38 41 69 77 69 82 0 4 -18 20 -40 35 -22 15 -38 31
-35 34 9 9 238 89 258 90 15 1 17 -12 17 -139z m1442 -137 c22 -20 23 -41 1
-65 -29 -33 -93 -13 -93 28 0 50 54 72 92 37z m-1110 -128 l63 -124 65 124 65
125 63 0 62 0 0 -235 0 -235 -50 0 -50 0 0 163 0 162 -73 -139 c-40 -76 -76
-139 -81 -140 -5 0 -42 62 -82 139 l-74 140 0 -162 0 -163 -50 0 -50 0 0 235
0 235 65 0 65 0 62 -125z m908 55 l0 -49 48 -3 c47 -3 47 -3 50 -40 l3 -38
-50 0 -51 0 0 -94 c0 -89 1 -94 23 -100 12 -3 33 -3 45 1 20 5 22 2 22 -35 0
-41 0 -41 -45 -47 -53 -8 -113 17 -132 55 -8 15 -13 65 -13 123 l0 97 -35 0
c-34 0 -35 1 -35 40 0 39 1 40 35 40 35 0 35 0 35 44 0 45 0 45 43 54 23 5 45
7 50 5 4 -2 7 -26 7 -53z m-269 -72 c115 -63 119 -232 7 -305 -34 -23 -53 -28
-103 -28 -50 0 -69 5 -103 28 -72 47 -101 141 -68 220 16 40 77 95 114 103 15
3 32 7 37 9 20 7 81 -8 116 -27z m787 5 c66 -31 111 -118 98 -188 -13 -69 -83
-138 -152 -151 -71 -13 -148 20 -190 83 -49 72 -38 163 26 224 61 58 138 69
218 32z m402 -2 c48 -33 60 -75 60 -208 l0 -123 -50 0 -50 0 0 117 c0 94 -3
120 -17 135 -20 22 -71 24 -101 2 -21 -14 -22 -22 -22 -135 l0 -119 -45 0 -45
0 0 175 0 175 45 0 c26 0 45 -5 45 -11 0 -7 7 -8 18 -4 62 26 120 25 162 -4z
m-2162 -243 l2 -258 -80 0 -80 0 0 260 0 261 78 -3 77 -3 3 -257z m1452 87 l0
-175 -45 0 -45 0 0 175 0 175 45 0 45 0 0 -175z m-1690 -160 l0 -185 -85 0
-85 0 0 185 0 185 85 0 85 0 0 -185z m-250 -45 l0 -140 -80 0 -80 0 0 140 0
140 80 0 80 0 0 -140z m-250 -15 l0 -125 -75 0 -75 0 0 125 0 125 75 0 75 0 0
-125z"/>
<path d="M2323 2576 c-23 -20 -28 -32 -28 -70 0 -60 35 -98 90 -98 55 0 90 38
90 98 0 38 -5 50 -28 70 -18 15 -41 24 -62 24 -21 0 -44 -9 -62 -24z"/>
<path d="M3116 2574 c-20 -21 -26 -37 -26 -71 0 -59 32 -93 90 -93 58 0 90 34
90 93 0 59 -36 97 -90 97 -27 0 -45 -7 -64 -26z"/>
</g>
</svg>
