<?xml version="1.0" standalone="no"?>
<!DOCTYPE svg PUBLIC "-//W3C//DTD SVG 20010904//EN"
 "http://www.w3.org/TR/2001/REC-SVG-20010904/DTD/svg10.dtd">
<svg version="1.0" xmlns="http://www.w3.org/2000/svg"
 width="500.000000pt" height="500.000000pt" viewBox="0 0 500.000000 500.000000"
 preserveAspectRatio="xMidYMid meet">

<g transform="translate(0.000000,500.000000) scale(0.100000,-0.100000)"
fill="#000000" stroke="none">
<path d="M1357 3033 l-128 -46 47 -34 48 -33 -105 -103 c-147 -145 -272 -222
-469 -289 l-85 -29 87 5 c187 11 431 127 621 296 l57 52 35 -27 35 -26 0 140
c0 78 -3 141 -7 140 -5 0 -66 -21 -136 -46z"/>
<path d="M2877 2802 c-22 -24 -21 -45 1 -65 27 -24 59 -21 78 8 15 23 15 27 0
50 -20 30 -56 33 -79 7z"/>
<path d="M1657 2793 c-4 -3 -7 -109 -7 -235 l0 -228 45 0 45 0 0 167 c0 101 4
163 9 158 5 -6 42 -72 81 -147 39 -76 73 -138 75 -138 2 0 39 66 82 148 l78
147 3 -167 2 -168 45 0 45 0 0 235 0 236 -62 -3 -63 -3 -64 -124 -63 -124 -66
127 -67 126 -56 0 c-30 0 -59 -3 -62 -7z"/>
<path d="M2673 2770 c-19 -8 -23 -17 -23 -50 0 -39 -1 -40 -35 -40 -34 0 -35
-1 -35 -40 0 -39 1 -40 34 -40 l34 0 4 -110 c3 -95 6 -113 24 -131 25 -25 75
-37 127 -31 36 4 37 6 37 42 0 38 -1 39 -32 34 -55 -8 -63 5 -66 106 l-4 90
51 0 51 0 0 40 0 40 -50 0 -50 0 0 50 c0 45 -2 50 -22 49 -13 0 -33 -4 -45 -9z"/>
<path d="M1357 2673 c-4 -3 -7 -120 -7 -260 l0 -253 75 0 75 0 0 260 0 260
-68 0 c-38 0 -72 -3 -75 -7z"/>
<path d="M2305 2666 c-16 -8 -42 -26 -57 -42 -142 -152 52 -378 234 -271 124
73 113 257 -19 313 -41 18 -119 17 -158 0z m149 -97 c42 -50 30 -126 -25 -155
-35 -18 -43 -18 -84 1 -59 29 -73 102 -29 154 21 26 33 31 69 31 36 0 48 -5
69 -31z"/>
<path d="M2870 2505 l0 -175 45 0 45 0 0 175 0 175 -45 0 -45 0 0 -175z"/>
<path d="M3088 2660 c-61 -33 -91 -88 -90 -167 4 -169 231 -232 334 -92 43 58
41 148 -4 212 -46 64 -163 87 -240 47z m149 -75 c48 -34 47 -125 -2 -165 -25
-21 -89 -19 -114 4 -44 40 -44 123 0 159 26 21 87 22 116 2z"/>
<path d="M3400 2505 l0 -175 45 0 45 0 0 118 c0 103 3 121 18 135 19 17 78 23
99 9 23 -14 33 -64 33 -163 l0 -99 46 0 46 0 -4 133 c-4 145 -13 174 -69 203
-36 18 -106 18 -141 0 -24 -13 -28 -13 -28 0 0 10 -12 14 -45 14 l-45 0 0
-175z"/>
<path d="M1100 2345 l0 -185 80 0 80 0 0 185 0 185 -80 0 -80 0 0 -185z"/>
<path d="M860 2300 l0 -140 80 0 80 0 0 140 0 140 -80 0 -80 0 0 -140z"/>
<path d="M620 2285 l0 -125 75 0 75 0 0 125 0 125 -75 0 -75 0 0 -125z"/>
</g>
</svg>
