<?xml version="1.0" standalone="no"?>
<!DOCTYPE svg PUBLIC "-//W3C//DTD SVG 20010904//EN"
 "http://www.w3.org/TR/2001/REC-SVG-20010904/DTD/svg10.dtd">
<svg version="1.0" xmlns="http://www.w3.org/2000/svg"
 width="500.000000pt" height="500.000000pt" viewBox="0 0 500.000000 500.000000"
 preserveAspectRatio="xMidYMid meet">

<g transform="translate(0.000000,500.000000) scale(0.100000,-0.100000)"
fill="#000000" stroke="none">
<path d="M1357 3032 l-129 -45 46 -29 46 -30 -19 -27 c-35 -48 -185 -186 -251
-229 -82 -54 -214 -118 -305 -149 l-70 -23 83 5 c182 10 405 117 603 286 71
62 75 63 117 26 l22 -20 0 141 c0 78 -3 141 -7 141 -5 -1 -66 -22 -136 -47z"/>
<path d="M2874 2795 c-15 -23 -15 -27 0 -50 29 -44 86 -28 86 25 0 53 -57 69
-86 25z"/>
<path d="M1660 2565 l0 -235 40 0 40 0 2 172 3 171 78 -151 c43 -84 80 -152
82 -152 2 0 34 58 71 130 99 193 93 193 94 -2 l0 -168 45 0 45 0 -2 233 -3
232 -60 0 -60 0 -60 -117 c-33 -64 -63 -119 -66 -122 -3 -3 -34 50 -70 119
l-64 125 -57 0 -58 0 0 -235z"/>
<path d="M2680 2771 c-21 -6 -26 -14 -28 -48 -3 -39 -5 -42 -35 -45 -29 -3
-32 -6 -35 -40 -3 -37 -3 -38 32 -38 l36 0 0 -82 c0 -155 23 -188 127 -188
l63 0 0 38 c0 37 -1 38 -33 34 -55 -6 -67 15 -67 114 l0 84 50 0 50 0 0 40 0
40 -50 0 -50 0 0 50 c0 54 -4 57 -60 41z"/>
<path d="M1357 2673 c-4 -3 -7 -120 -7 -260 l0 -253 75 0 75 0 0 260 0 260
-68 0 c-38 0 -72 -3 -75 -7z"/>
<path d="M2305 2665 c-46 -25 -66 -46 -86 -90 -74 -161 108 -313 264 -222 51
30 87 92 87 148 -1 50 -33 112 -75 145 -47 35 -142 45 -190 19z m150 -97 c53
-63 9 -168 -70 -168 -79 0 -123 105 -70 169 41 48 99 48 140 -1z"/>
<path d="M2870 2505 l0 -175 45 0 45 0 0 175 0 175 -45 0 -45 0 0 -175z"/>
<path d="M3089 2657 c-107 -57 -122 -218 -28 -290 74 -55 164 -55 238 0 41 32
61 77 61 140 -1 98 -79 173 -180 173 -30 0 -63 -8 -91 -23z m143 -68 c27 -14
51 -74 43 -109 -13 -57 -85 -94 -134 -68 -14 7 -34 28 -44 46 -17 29 -18 39
-8 72 6 22 21 46 34 55 25 17 79 20 109 4z"/>
<path d="M3400 2505 l0 -175 45 0 45 0 0 118 c0 101 3 121 18 134 41 37 100
28 121 -19 6 -13 11 -71 11 -128 l0 -105 46 0 46 0 -4 128 c-3 79 -9 137 -18
155 -29 60 -125 86 -190 52 -27 -14 -30 -14 -30 0 0 11 -11 15 -45 15 l-45 0
0 -175z"/>
<path d="M1110 2345 l0 -185 75 0 75 0 0 185 0 185 -75 0 -75 0 0 -185z"/>
<path d="M860 2300 l0 -140 75 0 75 0 0 140 0 140 -75 0 -75 0 0 -140z"/>
<path d="M620 2285 l0 -125 75 0 75 0 0 125 0 125 -75 0 -75 0 0 -125z"/>
</g>
</svg>
