<?xml version="1.0" standalone="no"?>
<!DOCTYPE svg PUBLIC "-//W3C//DTD SVG 20010904//EN"
 "http://www.w3.org/TR/2001/REC-SVG-20010904/DTD/svg10.dtd">
<svg version="1.0" xmlns="http://www.w3.org/2000/svg"
 width="500.000000pt" height="500.000000pt" viewBox="0 0 500.000000 500.000000"
 preserveAspectRatio="xMidYMid meet">

<g transform="translate(0.000000,500.000000) scale(0.100000,-0.100000)"
fill="#000000" stroke="none">
<path d="M1363 3032 l-133 -46 45 -29 c54 -36 54 -37 -52 -141 -143 -139 -280
-225 -459 -285 -84 -29 -87 -31 -46 -31 188 -1 467 130 648 303 l62 58 36 -31
36 -32 0 141 c0 78 -1 141 -2 140 -2 0 -63 -21 -135 -47z"/>
<path d="M2881 2806 c-17 -20 -10 -67 11 -79 28 -18 68 7 68 42 0 44 -53 68
-79 37z"/>
<path d="M1660 2560 l0 -230 40 0 40 0 2 173 3 172 79 -152 80 -152 29 52 c16
28 52 97 80 152 l52 100 3 -172 2 -173 45 0 45 0 0 230 0 230 -62 0 -63 0 -63
-120 c-35 -66 -65 -120 -68 -120 -2 0 -31 54 -64 120 l-60 120 -60 0 -60 0 0
-230z"/>
<path d="M2688 2773 c-24 -4 -27 -9 -30 -51 -3 -47 -3 -47 -41 -50 -36 -3 -38
-5 -35 -35 3 -29 6 -32 41 -35 l37 -3 0 -110 c0 -95 2 -111 20 -129 25 -25 54
-32 111 -28 43 3 44 4 47 39 3 35 3 35 -33 31 -56 -7 -65 8 -65 109 l0 89 50
0 50 0 0 34 c0 34 -1 35 -47 38 l-48 3 -3 53 c-2 33 -7 51 -15 51 -7 -1 -24
-4 -39 -6z"/>
<path d="M2300 2658 c-106 -54 -129 -188 -47 -277 63 -68 201 -68 264 0 82 89
59 223 -47 277 -24 12 -63 22 -85 22 -22 0 -61 -10 -85 -22z m123 -59 c61 -31
77 -115 33 -166 -20 -23 -32 -28 -71 -28 -39 0 -51 5 -71 28 -70 81 17 213
109 166z"/>
<path d="M3105 2666 c-129 -58 -141 -240 -22 -311 90 -52 213 -21 257 65 63
123 -24 261 -163 260 -23 -1 -55 -7 -72 -14z m145 -91 c19 -20 25 -36 25 -71
0 -39 -5 -50 -33 -75 -20 -18 -43 -29 -62 -29 -19 0 -42 11 -62 29 -28 25 -33
36 -33 74 0 95 99 138 165 72z"/>
<path d="M3523 2666 c-18 -8 -33 -11 -33 -6 0 6 -20 10 -45 10 l-45 0 0 -170
0 -170 45 0 45 0 0 125 0 124 30 16 c41 21 67 19 95 -10 24 -23 25 -30 25
-140 l0 -115 40 0 40 0 0 135 0 135 -33 36 c-28 31 -41 37 -83 40 -30 3 -62
-1 -81 -10z"/>
<path d="M1360 2415 l0 -255 70 0 70 0 0 255 0 255 -70 0 -70 0 0 -255z"/>
<path d="M2870 2500 l0 -170 45 0 45 0 0 170 0 170 -45 0 -45 0 0 -170z"/>
<path d="M1110 2345 l0 -185 75 0 75 0 0 185 0 185 -75 0 -75 0 0 -185z"/>
<path d="M860 2300 l0 -140 75 0 75 0 0 140 0 140 -75 0 -75 0 0 -140z"/>
<path d="M620 2280 l0 -120 75 0 75 0 0 120 0 120 -75 0 -75 0 0 -120z"/>
</g>
</svg>
